<svg width="41" height="38" viewBox="0 0 41 38" fill="none" xmlns="http://www.w3.org/2000/svg">
<path d="M14.17 35.91C9.45 33.01 7.98 26.83 10.89 22.11L21.52 4.85004C24.42 0.130041 30.6 -1.33996 35.32 1.57004C40.04 4.48004 41.51 10.65 38.6 15.37L27.97 32.63C25.07 37.35 18.89 38.81 14.17 35.91Z" fill="#D64026"/>
<path d="M24.17 36.2201C19.3 38.8501 13.21 37.03 10.58 32.16L1.21 14.8C-1.43 9.92005 0.389999 3.84005 5.27 1.21005C10.15 -1.41995 16.23 0.400049 18.86 5.27005L28.24 22.63C30.86 27.5 29.05 33.5901 24.17 36.2201Z" fill="#F5D43E"/>
</svg>
