<svg xmlns="http://www.w3.org/2000/svg" viewBox="0 0 34.29 34.29"><defs><style>.cls-1{fill:#ffc809;}.cls-2{fill:#eb6d24;fill-rule:evenodd;}</style></defs><title>update_icon</title><g id="Layer_2" data-name="Layer 2"><g id="Layer_1-2" data-name="Layer 1"><circle class="cls-1" cx="17.14" cy="17.14" r="17.14" transform="translate(-7.1 17.14) rotate(-45)"/><path class="cls-2" d="M17.4,10.11a7.06,7.06,0,0,0-7,5.93.5.5,0,0,1-.09.24.66.66,0,0,1-.18.19.52.52,0,0,1-.23.1.58.58,0,0,1-.26,0,.63.63,0,0,1-.24-.09.81.81,0,0,1-.19-.18.67.67,0,0,1-.1-.23.77.77,0,0,1,0-.26,8.38,8.38,0,0,1,8.33-7A6.88,6.88,0,0,1,22,10.71a15.61,15.61,0,0,1,2,2.27V10.9a.65.65,0,0,1,.63-.63.64.64,0,0,1,.45.19.61.61,0,0,1,.19.44v3.8a.65.65,0,0,1-.64.64H20.9a.61.61,0,0,1-.44-.19.64.64,0,0,1-.19-.45.65.65,0,0,1,.63-.63h2.34a15.51,15.51,0,0,0-2.08-2.38,5.61,5.61,0,0,0-3.76-1.58Zm-.51,14.07a7.07,7.07,0,0,0,7-5.84A.54.54,0,0,1,24,18.1a.81.81,0,0,1,.18-.19.64.64,0,0,1,.24-.1.75.75,0,0,1,.26,0,.72.72,0,0,1,.24.1.55.55,0,0,1,.18.19.51.51,0,0,1,.1.24.57.57,0,0,1,0,.26,8.37,8.37,0,0,1-8.3,6.91,6.92,6.92,0,0,1-4.64-1.92,15,15,0,0,1-2-2.27v2.07a.64.64,0,0,1-1.09.45A.67.67,0,0,1,9,23.38v-3.8a.67.67,0,0,1,.18-.45A.63.63,0,0,1,9.58,19h3.8a.63.63,0,0,1,.45.18.64.64,0,0,1-.45,1.09H11.05a15.36,15.36,0,0,0,2.07,2.37A5.59,5.59,0,0,0,16.89,24.18Z"/></g></g></svg>