<svg xmlns="http://www.w3.org/2000/svg" viewBox="0 0 34.29 34.29"><defs><style>.cls-1{fill:#ffc809;}.cls-2{fill:#eb6d24;}</style></defs><title>icon_export</title><g id="Layer_2" data-name="Layer 2"><g id="Layer_1-2" data-name="Layer 1"><circle class="cls-1" cx="17.14" cy="17.14" r="17.14" transform="translate(-7.1 17.14) rotate(-45)"/><path class="cls-2" d="M24.51,24.39a.72.72,0,0,1-.72-.63V10.62a.78.78,0,0,1,.19-.5.74.74,0,0,1,.48-.22.68.68,0,0,1,.51.16.74.74,0,0,1,.26.46V23.67a.72.72,0,0,1-.22.51.74.74,0,0,1-.51.21Zm-12-1.82-.08.09a.94.94,0,0,1-.63.28.92.92,0,0,1-.65-.2L11,22.66,6.19,17.83a.94.94,0,0,1-.28-.62,1,1,0,0,1,.2-.66l.08-.09L11,11.63a1,1,0,0,1,.66-.29.94.94,0,0,1,.67.24,1,1,0,0,1,.12,1.32l-.08.09L9.21,16.18H21.37a1,1,0,0,1,1,.85v.12a1,1,0,0,1-.25.64,1,1,0,0,1-.61.31H9.21l3.18,3.18a1,1,0,0,1,.28.63,1,1,0,0,1-.2.65l-.08.09.08-.09Z"/></g></g></svg>