<svg xmlns="http://www.w3.org/2000/svg" viewBox="0 0 34.29 34.29">
    <defs>
        <style>.cls-1{fill:#ffc809;}.cls-2{fill:#eb6d24;}</style>
    </defs>
    <title>add_iconAsset 1</title>
    <g id="Layer_2" data-name="Layer 2">
        <g id="Layer_1-2" data-name="Layer 1">
            <circle class="cls-1" cx="17.14" cy="17.14" r="17.14" transform="translate(-7.1 17.14) rotate(-45)"/>
            <path class="cls-2"
                  d="M17.14,8.57a1.09,1.09,0,0,0-1.06.93v6.57H9.64a1.05,1.05,0,0,0-.73.29,1.09,1.09,0,0,0-.34.71,1.13,1.13,0,0,0,.24.75,1,1,0,0,0,.69.38h6.57v6.43a1,1,0,0,0,.29.73,1.09,1.09,0,0,0,.71.34,1.07,1.07,0,0,0,1.13-.92V18.21h6.43a1.07,1.07,0,0,0,.73-.28,1.09,1.09,0,0,0,.34-.71,1,1,0,0,0-.24-.75,1.08,1.08,0,0,0-.68-.39H18.21V9.64a1.06,1.06,0,0,0-.31-.75A1,1,0,0,0,17.14,8.57Z"/>
        </g>
    </g>
</svg>
