<svg xmlns="http://www.w3.org/2000/svg" viewBox="0 0 34.29 34.29"><defs><style>.cls-1{fill:#ffc809;}.cls-2{fill:#eb6d24;}</style></defs><title>icon_save</title><g id="Layer_2" data-name="Layer 2"><g id="Layer_1-2" data-name="Layer 1"><circle class="cls-1" cx="17.14" cy="17.14" r="17.14" transform="translate(-7.1 17.14) rotate(-45)"/><path class="cls-2" d="M10.78,16.24V11.69a.91.91,0,0,1,.91-.91H22.6a.9.9,0,0,1,.9.91v4.55a.9.9,0,0,0,.91.9h0a.9.9,0,0,0,.91-.9V11.69A2.73,2.73,0,0,0,22.6,9H11.69A2.74,2.74,0,0,0,9,11.69v4.55a.9.9,0,0,0,.91.9h0A.9.9,0,0,0,10.78,16.24Zm5.45.29-1.71,1.71a.91.91,0,0,1-1.28,0h0a.91.91,0,0,1,0-1.28l3.26-3.27a.91.91,0,0,1,1.28,0L21.05,17a.91.91,0,0,1,0,1.28h0a.92.92,0,0,1-1.29,0l-1.71-1.71v7.88a.9.9,0,0,1-.91.91h0a.91.91,0,0,1-.91-.91Z"/></g></g></svg>